# xmcd
# Copyright (C) 1995-1998 Ti Kan
#
# Track frame offsets:
#       150
#       23608
#       40516
#       58909
#
# Disc length: 1214 seconds
#
# Revision: 4
# Processed by: cddbd v1.5.2PL0 Copyright (c) Steve Scherf et al.
# Submitted via: CD-Transfer v1.0
#
DISCID=2704bc04
DTITLE=Goluban, Tomislav and Little Pigeon's Forhill Blues - T. Goluban
DYEAR=09
DGENRE=
TTITLE0=Libertin
TTITLE1=Libertin Blues
TTITLE2=Libertin Boogie
TTITLE3=Vinski Vrh
EXTD=
EXTT0=
EXTT1=
EXTT2=
EXTT3=
PLAYORDER=
